<svg width="20" height="18" viewBox="0 0 20 18" fill="none" xmlns="http://www.w3.org/2000/svg">
<path fill-rule="evenodd" clip-rule="evenodd" d="M20 2.63919C19.2646 2.97434 18.4724 3.20014 17.6442 3.30097C18.4918 2.7812 19.1427 1.95753 19.4474 0.974795C18.6538 1.45622 17.7772 1.80699 16.8409 1.99445C16.0945 1.17645 15.0267 0.666626 13.8467 0.666626C11.5809 0.666626 9.74448 2.55114 9.74448 4.87306C9.74448 5.20395 9.7791 5.52348 9.84973 5.83165C6.44 5.65555 3.41666 3.98263 1.39187 1.43492C1.03871 2.05836 0.836507 2.7812 0.836507 3.55233C0.836507 5.01081 1.56083 6.29887 2.66187 7.05438C1.99017 7.03308 1.35725 6.84136 0.803269 6.52893V6.58005C0.803269 8.61936 2.2173 10.3207 4.09528 10.7055C3.75043 10.8049 3.38896 10.8547 3.01364 10.8547C2.74912 10.8547 2.49152 10.8291 2.24223 10.7794C2.76435 12.4509 4.2781 13.6679 6.07437 13.7006C4.67004 14.8296 2.90008 15.5013 0.979157 15.5013C0.64677 15.5013 0.319922 15.4829 0 15.4431C1.81566 16.636 3.97202 17.3333 6.28904 17.3333C13.8384 17.3333 17.9641 10.9228 17.9641 5.36158C17.9641 5.1798 17.9614 4.99661 17.9531 4.81767C18.7549 4.22406 19.4516 3.48275 20 2.63919Z" fill="#2F6A49"/>
</svg>
