<svg width="21" height="20" viewBox="0 0 21 20" fill="none" xmlns="http://www.w3.org/2000/svg">
<path d="M10.1667 1.80184C12.8369 1.80184 13.1531 1.812 14.2076 1.86011C15.1826 1.90461 15.712 2.06752 16.0645 2.20443C16.5312 2.38583 16.8644 2.60257 17.2143 2.95248C17.5642 3.30239 17.7809 3.63555 17.9623 4.10229C18.0992 4.4547 18.2621 4.98419 18.3066 5.95914C18.3547 7.01364 18.3649 7.32989 18.3649 10C18.3649 12.6701 18.3547 12.9864 18.3066 14.0409C18.2621 15.0158 18.0992 15.5453 17.9623 15.8978C17.7809 16.3645 17.5642 16.6976 17.2143 17.0476C16.8644 17.3975 16.5312 17.6142 16.0645 17.7956C15.712 17.9325 15.1826 18.0954 14.2076 18.1399C13.1533 18.188 12.837 18.1982 10.1667 18.1982C7.49644 18.1982 7.18019 18.188 6.12589 18.1399C5.1509 18.0954 4.62141 17.9325 4.26903 17.7956C3.80226 17.6142 3.4691 17.3975 3.11919 17.0476C2.76928 16.6976 2.55254 16.3645 2.37117 15.8978C2.23423 15.5453 2.07132 15.0158 2.02682 14.0409C1.97871 12.9864 1.96855 12.6701 1.96855 10C1.96855 7.32989 1.97871 7.01364 2.02682 5.95918C2.07132 4.98419 2.23423 4.4547 2.37117 4.10229C2.55254 3.63555 2.76928 3.30239 3.11919 2.95248C3.4691 2.60257 3.80226 2.38583 4.26903 2.20443C4.62141 2.06752 5.1509 1.90461 6.12585 1.86011C7.18035 1.812 7.4966 1.80184 10.1667 1.80184ZM10.1667 0C7.45087 0 7.11037 0.0115117 6.04376 0.0601779C4.97934 0.108765 4.25244 0.277786 3.61633 0.525007C2.95874 0.780564 2.40106 1.1225 1.84513 1.67843C1.28921 2.23436 0.947272 2.79203 0.691715 3.44962C0.444494 4.08573 0.275473 4.81263 0.226886 5.87705C0.17822 6.94362 0.166748 7.28416 0.166748 10C0.166748 12.7159 0.17822 13.0564 0.226886 14.123C0.275473 15.1874 0.444494 15.9143 0.691715 16.5504C0.947272 17.208 1.28921 17.7657 1.84513 18.3216C2.40106 18.8775 2.95874 19.2195 3.61633 19.475C4.25244 19.7223 4.97934 19.8913 6.04376 19.9399C7.11037 19.9885 7.45087 20 10.1667 20C12.8826 20 13.2231 19.9885 14.2897 19.9399C15.3541 19.8913 16.081 19.7223 16.7171 19.475C17.3747 19.2195 17.9324 18.8775 18.4883 18.3216C19.0443 17.7657 19.3862 17.208 19.6417 16.5504C19.889 15.9143 20.058 15.1874 20.1066 14.123C20.1552 13.0564 20.1667 12.7159 20.1667 10C20.1667 7.28416 20.1552 6.94362 20.1066 5.87705C20.058 4.81263 19.889 4.08573 19.6417 3.44962C19.3862 2.79203 19.0443 2.23436 18.4883 1.67843C17.9324 1.1225 17.3747 0.780564 16.7171 0.525007C16.081 0.277786 15.3541 0.108765 14.2897 0.0601779C13.2231 0.0115117 12.8826 0 10.1667 0ZM10.1667 4.86487C7.33067 4.86487 5.03158 7.16397 5.03158 10C5.03158 12.8361 7.33067 15.1352 10.1667 15.1352C13.0028 15.1352 15.3019 12.8361 15.3019 10C15.3019 7.16397 13.0028 4.86487 10.1667 4.86487ZM10.1667 13.3334C8.32579 13.3334 6.83337 11.841 6.83337 10C6.83337 8.15908 8.32579 6.66667 10.1667 6.66667C12.0077 6.66667 13.5001 8.15908 13.5001 10C13.5001 11.841 12.0077 13.3334 10.1667 13.3334ZM16.7047 4.66199C16.7047 5.32474 16.1675 5.86201 15.5048 5.86201C14.842 5.86201 14.3047 5.32474 14.3047 4.66199C14.3047 3.99924 14.842 3.462 15.5048 3.462C16.1675 3.462 16.7047 3.99924 16.7047 4.66199Z" fill="#2F6A49"/>
</svg>
